<?xml version="1.0" standalone="no"?>
<!DOCTYPE svg PUBLIC "-//W3C//DTD SVG 20010904//EN"
 "http://www.w3.org/TR/2001/REC-SVG-20010904/DTD/svg10.dtd">
<svg version="1.0" xmlns="http://www.w3.org/2000/svg"
 width="900.000000pt" height="900.000000pt" viewBox="0 0 900.000000 900.000000"
 preserveAspectRatio="xMidYMid meet">
<metadata>
Created by potrace 1.10, written by Peter Selinger 2001-2011
</metadata>
<g transform="translate(0.000000,900.000000) scale(0.100000,-0.100000)"
fill="#000000" stroke="none">
<path d="M3150 7388 c-201 -56 -300 -117 -421 -255 -35 -40 -99 -137 -99 -149
0 -3 -6 -20 -14 -37 -48 -112 -46 -7 -46 -2214 1 -1944 2 -2062 19 -2133 34
-142 86 -229 213 -352 85 -82 201 -149 294 -168 129 -28 284 -31 1559 -28
1252 3 1323 4 1375 22 144 48 296 144 362 230 18 22 36 43 40 46 11 9 78 143
78 157 0 7 4 21 9 31 6 9 17 51 25 92 14 66 16 313 15 2090 -1 2142 0 2067
-47 2220 -51 167 -234 355 -397 408 -22 7 -78 22 -124 33 -82 18 -133 19
-1445 18 -858 -1 -1374 -5 -1396 -11z m2860 -135 c78 -19 114 -37 188 -91 102
-76 137 -127 195 -287 l22 -60 0 -2090 c0 -2060 0 -2091 -20 -2145 -44 -121
-157 -268 -242 -313 -153 -83 -56 -78 -1573 -79 -1187 0 -1353 1 -1410 15
-133 32 -197 65 -281 145 -107 100 -152 187 -175 337 -18 122 -22 4088 -4
4175 26 123 142 267 261 327 130 64 139 66 317 72 299 12 2672 6 2722 -6z"/>
<path d="M3265 7054 c-186 -57 -290 -166 -346 -363 -16 -55 -19 -101 -19 -281
0 -226 5 -258 55 -357 23 -45 97 -126 158 -170 106 -78 -6 -72 1456 -74 1223
-2 1309 -1 1346 15 22 10 47 22 55 27 8 5 24 13 36 18 29 13 126 126 159 186
50 90 55 123 56 370 0 142 -4 241 -10 258 -6 16 -11 36 -11 46 0 17 -25 77
-55 129 -32 58 -144 155 -205 178 -8 3 -30 12 -48 20 -51 22 -2554 20 -2627
-2z m2625 -136 c76 -38 125 -87 162 -160 29 -60 31 -68 40 -257 11 -243 1
-337 -43 -414 -59 -101 -127 -152 -216 -161 -26 -3 -601 -8 -1278 -11 -980 -4
-1238 -2 -1270 8 -94 30 -153 76 -209 165 -36 59 -46 138 -46 372 0 236 8 286
56 330 13 13 24 29 24 36 0 24 85 76 170 104 52 17 124 18 1305 17 l1250 -2
55 -27z"/>
<path d="M5447 6830 c-9 -6 -24 -24 -32 -40 -13 -25 -13 -34 -3 -52 37 -64 92
-75 139 -29 35 35 37 61 7 96 -26 29 -83 42 -111 25z"/>
<path d="M4605 6773 c-19 -20 -25 -38 -24 -63 2 -64 0 -71 -31 -82 -30 -10
-31 -12 -28 -67 3 -53 4 -56 33 -61 l30 -5 0 -125 c1 -135 6 -154 63 -218 30
-34 87 -62 124 -62 37 0 97 25 113 46 19 25 19 58 -1 96 -15 28 -18 30 -57 24
-66 -9 -72 -1 -75 119 -4 123 1 135 63 135 53 0 67 16 63 72 l-3 43 -55 3
c-66 3 -80 18 -80 82 0 63 -21 90 -70 90 -30 0 -45 -7 -65 -27z"/>
<path d="M3502 6620 c-51 -36 -55 -36 -67 -7 -13 29 -84 36 -121 12 l-24 -16
5 -227 c3 -131 10 -236 16 -248 16 -30 69 -45 102 -28 36 19 39 36 35 183 l-3
129 31 38 c26 33 38 39 75 42 36 2 51 -2 74 -22 l30 -26 5 -152 c3 -84 9 -160
14 -170 16 -35 112 -33 134 2 7 12 12 77 13 177 3 173 -5 208 -59 267 -51 54
-97 76 -159 76 -48 -1 -66 -6 -101 -30z"/>
<path d="M3941 6631 c-16 -16 -18 -35 -17 -192 2 -152 5 -180 23 -219 46 -100
128 -143 231 -120 31 7 71 24 89 37 28 22 34 23 38 9 3 -9 7 -23 10 -32 4 -14
14 -15 52 -10 26 3 52 11 57 16 17 17 25 109 25 301 1 211 -2 219 -75 219 -73
-1 -78 -11 -84 -180 -6 -137 -8 -151 -28 -173 -54 -57 -138 -49 -166 16 -9 21
-16 85 -19 168 -3 74 -8 141 -12 150 -6 16 -46 29 -86 29 -11 0 -27 -8 -38
-19z"/>
<path d="M5202 6620 c-51 -37 -65 -37 -80 -5 -10 22 -18 25 -61 25 -40 0 -52
-4 -61 -20 -7 -14 -10 -100 -8 -256 3 -222 4 -236 23 -251 27 -20 85 -10 107
19 13 18 17 50 20 160 l3 137 34 35 c31 32 41 36 86 36 41 0 56 5 72 23 32 35
36 70 12 101 -30 38 -92 36 -147 -4z"/>
<path d="M5470 6623 c-19 -3 -38 -10 -42 -16 -12 -18 -9 -156 6 -308 15 -153
26 -178 89 -204 47 -19 61 -19 103 1 63 30 67 117 7 146 l-28 13 -8 170 c-4
94 -12 177 -16 185 -8 16 -51 20 -111 13z"/>
<path d="M3340 5576 c-114 -29 -250 -129 -294 -216 -23 -44 -56 -166 -56 -205
1 -96 67 -242 141 -310 99 -91 176 -118 321 -112 137 5 183 23 271 106 38 36
73 75 78 86 5 11 13 27 18 35 43 75 45 86 45 190 0 88 -3 114 -23 160 -33 77
-83 143 -144 187 -72 53 -93 63 -167 79 -75 16 -127 16 -190 0z m185 -119 c87
-27 142 -74 190 -160 23 -42 27 -60 27 -135 0 -67 -5 -98 -21 -133 -24 -53
-106 -149 -127 -149 -8 0 -26 -7 -39 -16 -18 -12 -48 -16 -113 -16 -89 0 -130
13 -210 63 -31 19 -84 102 -106 167 -45 130 21 290 144 350 83 40 183 52 255
29z"/>
<path d="M3396 5308 c-22 -36 -14 -282 10 -309 22 -24 29 -24 54 1 18 18 20
33 20 149 0 71 -4 141 -10 155 -12 34 -54 35 -74 4z"/>
<path d="M4490 5575 c-75 -15 -135 -36 -152 -53 -7 -7 -17 -12 -23 -12 -13 0
-105 -94 -131 -135 -72 -114 -80 -280 -20 -405 32 -66 116 -162 158 -180 12
-5 30 -14 38 -19 42 -24 94 -35 183 -39 140 -5 225 26 312 113 64 63 101 126
130 219 64 209 -115 479 -340 510 -27 4 -59 9 -70 11 -11 2 -49 -3 -85 -10z
m142 -117 c29 -6 60 -17 69 -25 8 -7 20 -13 25 -13 16 0 70 -54 96 -96 14 -21
33 -69 43 -106 17 -63 17 -69 0 -125 -26 -89 -37 -109 -91 -164 -62 -63 -112
-82 -213 -82 -66 1 -97 6 -135 23 -52 24 -146 111 -146 136 0 8 -7 26 -16 39
-12 19 -16 50 -16 125 0 79 3 105 16 119 9 10 16 22 16 26 0 14 87 93 123 112
25 13 102 33 169 42 3 1 30 -4 60 -11z"/>
<path d="M4495 5326 c-60 -26 -84 -97 -45 -136 25 -25 25 -31 -1 -64 -31 -39
-22 -82 23 -119 101 -82 237 -9 205 111 -8 31 -8 53 0 85 22 78 -27 137 -112
136 -22 0 -54 -6 -70 -13z m105 -102 c0 -19 -18 -27 -46 -20 -28 7 -31 22 -7
48 15 17 17 17 35 2 10 -10 18 -23 18 -30z m-10 -119 c10 -12 10 -18 0 -30
-24 -29 -70 -11 -70 27 0 23 52 25 70 3z"/>
<path d="M5580 5570 c-52 -13 -109 -35 -122 -48 -7 -7 -17 -12 -24 -12 -16 0
-118 -111 -139 -152 -26 -50 -55 -158 -55 -203 0 -44 30 -157 51 -196 87 -153
214 -229 384 -229 195 0 321 85 415 280 18 37 22 63 22 151 0 99 -2 109 -33
174 -44 88 -116 160 -204 204 -61 29 -80 34 -164 37 -53 1 -112 -1 -131 -6z
m184 -112 c88 -25 171 -97 206 -176 31 -70 28 -194 -6 -263 -34 -67 -76 -109
-145 -144 -46 -24 -66 -28 -139 -27 -87 0 -127 12 -203 65 -55 37 -117 173
-117 254 0 138 89 249 230 289 59 16 123 17 174 2z"/>
<path d="M5539 5279 c-48 -18 -44 -82 5 -95 13 -3 81 -4 151 -2 112 3 128 5
141 22 19 27 18 42 -6 66 -18 18 -33 20 -142 19 -68 0 -135 -5 -149 -10z"/>
<path d="M5528 5123 c-24 -6 -34 -49 -17 -69 11 -13 35 -15 161 -11 97 3 153
9 163 17 21 17 19 47 -4 60 -19 10 -268 13 -303 3z"/>
<path d="M3330 4525 c-97 -27 -181 -85 -245 -170 -80 -105 -114 -254 -80 -350
8 -22 15 -46 15 -53 0 -36 146 -212 176 -212 5 0 15 -5 22 -12 44 -44 281 -65
359 -32 132 56 199 118 256 234 29 61 31 71 31 175 -1 103 -3 114 -33 176 -35
71 -83 129 -146 175 -63 46 -84 56 -154 70 -78 17 -140 16 -201 -1z m185 -121
c49 -8 137 -65 168 -107 45 -64 59 -108 59 -192 0 -103 -31 -176 -96 -231 -61
-51 -106 -67 -205 -71 -89 -5 -127 5 -200 54 -68 46 -120 142 -128 238 -5 59
22 149 62 200 39 51 118 98 188 111 61 12 72 11 152 -2z"/>
<path d="M3422 4275 c-12 -9 -29 -28 -36 -43 -8 -15 -40 -54 -70 -86 -34 -36
-56 -69 -56 -82 0 -22 5 -23 73 -26 l72 -3 3 -42 c2 -32 9 -46 24 -54 19 -10
25 -8 45 15 13 15 23 38 23 52 0 14 7 36 16 49 9 14 12 29 7 37 -4 7 -10 50
-13 95 -4 45 -8 84 -11 87 -14 14 -57 15 -77 1z m8 -133 c0 -5 -6 -17 -14 -28
-12 -16 -17 -17 -28 -6 -11 11 -10 16 6 28 22 16 36 18 36 6z"/>
<path d="M4446 4524 c-27 -7 -54 -18 -60 -24 -5 -5 -16 -10 -24 -10 -31 0
-127 -85 -168 -150 -60 -94 -67 -117 -68 -235 -1 -107 0 -113 34 -179 37 -75
116 -162 171 -190 145 -73 306 -76 447 -7 44 22 127 109 158 166 79 150 83
258 15 405 -23 49 -149 174 -196 196 -95 42 -217 53 -309 28z m180 -115 c116
-21 203 -103 237 -225 22 -77 21 -87 -4 -167 -26 -84 -86 -154 -164 -191 -69
-33 -189 -37 -251 -8 -77 34 -131 82 -165 145 -31 58 -33 69 -33 158 0 109 10
133 86 205 55 52 90 72 153 83 70 12 74 12 141 0z"/>
<path d="M4476 4280 c-39 -12 -46 -25 -46 -92 0 -72 19 -94 87 -103 85 -11
112 -32 81 -63 -17 -17 -49 -15 -76 4 -12 8 -37 14 -55 12 -26 -2 -33 -8 -35
-30 -5 -42 50 -78 119 -78 66 0 112 26 136 75 16 34 16 37 -5 80 -21 43 -21
46 -5 89 20 53 9 91 -33 106 -31 12 -128 12 -168 0z m119 -95 c0 -16 -8 -21
-37 -23 -32 -3 -38 0 -38 17 0 22 15 31 50 28 18 -1 25 -8 25 -22z"/>
<path d="M5584 4525 c-76 -18 -153 -61 -204 -113 -26 -26 -50 -54 -53 -62 -4
-8 -17 -31 -28 -50 -24 -40 -58 -160 -59 -206 0 -75 51 -200 110 -267 85 -97
200 -147 336 -147 172 0 305 85 396 255 30 57 32 66 32 170 0 85 -4 118 -17
144 -9 19 -17 38 -17 43 0 12 -82 118 -107 138 -115 94 -254 128 -389 95z
m178 -116 c29 -6 60 -17 69 -25 8 -8 20 -14 26 -14 16 0 91 -88 114 -132 27
-52 27 -199 0 -257 -20 -46 -79 -121 -94 -121 -6 0 -18 -6 -26 -13 -55 -46
-216 -63 -288 -30 -166 75 -244 263 -175 424 21 49 78 111 127 137 66 36 165
48 247 31z"/>
<path d="M5543 4222 c-24 -4 -38 -35 -31 -69 3 -16 17 -18 155 -21 127 -2 154
0 167 13 9 9 16 24 16 33 -1 39 -13 43 -151 45 -74 1 -144 1 -156 -1z"/>
<path d="M5527 4052 c-22 -24 -21 -35 1 -55 15 -14 42 -17 154 -17 149 0 162
5 156 57 l-3 28 -146 3 c-131 2 -147 1 -162 -16z"/>
<path d="M3405 3494 c-163 -34 -188 -46 -276 -133 -66 -67 -93 -113 -123 -210
-21 -69 -20 -111 3 -191 43 -153 142 -262 284 -314 66 -25 223 -24 292 1 99
36 206 134 241 223 3 8 13 31 22 50 12 26 16 64 15 145 0 102 -3 115 -31 175
-41 86 -111 158 -201 208 -46 26 -185 54 -226 46z m130 -137 c22 -6 58 -24 80
-40 93 -69 126 -135 128 -254 1 -90 -15 -138 -67 -208 -62 -81 -118 -107 -237
-106 -93 0 -135 13 -200 63 -67 51 -129 178 -129 262 0 67 31 145 79 196 26
28 51 50 57 50 5 0 16 6 22 12 20 20 143 47 187 42 22 -3 58 -11 80 -17z"/>
<path d="M3400 3203 c-21 -26 -22 -36 -18 -148 5 -130 17 -165 55 -165 28 0
43 27 43 78 0 41 23 72 53 72 30 0 18 27 -15 36 -31 9 -33 13 -38 65 -8 88
-40 112 -80 62z"/>
<path d="M4445 3475 c-107 -26 -223 -118 -269 -212 -10 -21 -25 -51 -34 -68
-11 -21 -15 -58 -15 -135 0 -116 12 -154 80 -256 32 -49 101 -114 120 -114 5
0 14 -5 21 -12 25 -25 127 -48 212 -48 161 0 275 63 364 203 111 173 97 365
-37 513 -109 120 -279 170 -442 129z m207 -118 c27 -7 53 -18 60 -25 7 -7 17
-12 23 -12 14 0 79 -67 94 -98 18 -35 51 -142 51 -166 0 -27 -31 -122 -52
-161 -26 -47 -99 -110 -148 -128 -67 -25 -185 -23 -245 4 -58 26 -132 97 -164
159 -19 38 -23 60 -24 140 0 80 3 102 22 137 66 124 233 189 383 150z"/>
<path d="M4391 3206 c-16 -17 -22 -33 -19 -57 3 -31 6 -34 41 -37 20 -2 37 -8
37 -14 0 -5 -11 -31 -24 -58 -31 -62 -40 -120 -22 -143 17 -22 94 -26 107 -6
5 8 7 28 3 44 -7 38 -7 88 1 143 9 54 1 83 -31 121 -31 37 -62 40 -93 7z"/>
<path d="M4585 3205 c-40 -39 -29 -95 18 -95 11 0 25 7 32 17 7 9 19 14 29 10
22 -8 20 -24 -4 -44 -21 -18 -27 -67 -10 -78 23 -15 9 -31 -24 -27 -69 8 -80
-70 -15 -104 37 -18 65 -18 100 3 42 25 54 62 35 108 -20 47 -20 69 -1 85 25
20 19 84 -11 119 -22 27 -32 31 -75 31 -40 0 -55 -5 -74 -25z"/>
<path d="M5575 3475 c-94 -22 -175 -74 -235 -152 -65 -85 -106 -213 -96 -298
12 -104 67 -215 137 -280 98 -90 165 -116 302 -117 98 -1 119 4 216 51 50 24
143 131 181 208 32 65 34 74 34 179 1 88 -3 119 -19 155 -40 91 -120 176 -215
228 -70 38 -206 50 -305 26z m184 -111 c95 -24 159 -76 208 -169 23 -44 26
-62 26 -140 0 -75 -4 -98 -24 -135 -32 -61 -96 -123 -155 -150 -68 -31 -200
-31 -262 0 -143 70 -224 249 -177 392 23 67 48 101 107 145 44 32 146 70 192
72 11 1 49 -6 85 -15z"/>
<path d="M5642 3247 c-6 -7 -12 -40 -14 -72 l-3 -60 -53 -10 c-29 -6 -57 -17
-62 -25 -26 -41 3 -80 59 -80 49 0 61 -14 61 -72 0 -40 4 -50 26 -64 24 -16
27 -16 52 3 21 15 28 30 30 64 4 53 16 69 53 69 48 0 79 20 79 50 0 37 -27 58
-80 62 l-45 3 -3 50 c-4 71 -18 95 -57 95 -18 0 -37 -6 -43 -13z"/>
<path d="M3946 2449 c-14 -17 -26 -37 -26 -44 0 -22 50 -75 71 -75 11 0 33 10
49 22 38 28 41 74 7 106 -33 31 -70 28 -101 -9z"/>
<path d="M5052 2460 c-33 -28 -35 -86 -3 -111 29 -24 49 -24 81 0 18 14 24 29
24 56 0 27 -6 42 -24 56 -31 24 -49 23 -78 -1z"/>
<path d="M4533 2450 c-29 -27 -37 -56 -23 -90 21 -51 79 -49 114 4 22 34 20
45 -11 78 -32 33 -52 35 -80 8z"/>
<path d="M3402 2453 c-34 -13 -33 -94 1 -115 35 -22 87 4 102 51 13 41 -55 83
-103 64z"/>
<path d="M5653 2450 c-29 -12 -35 -78 -11 -107 16 -19 72 -16 91 5 20 22 22
75 4 90 -19 16 -60 22 -84 12z"/>
</g>
</svg>
